<?xml version="1.0" encoding="UTF-8"?>
<svg id="Ebene_1" xmlns="http://www.w3.org/2000/svg" version="1.1" xmlns:xlink="http://www.w3.org/1999/xlink" viewBox="0 0 32 32.5">
  <!-- Generator: Adobe Illustrator 29.8.1, SVG Export Plug-In . SVG Version: 2.1.1 Build 2)  -->
  <defs>
    <style>
      .st0 {
        fill: #fff;
      }

      .st1 {
        fill: none;
      }

      .st2 {
        clip-path: url(#clippath-1);
      }

      .st3 {
        fill: #ff1515;
      }

      .st4 {
        fill: #ffbbd7;
      }

      .st5 {
        fill: url(#Unbenannter_Verlauf);
      }

      .st6 {
        clip-path: url(#clippath-2);
      }

      .st7 {
        clip-path: url(#clippath);
      }
    </style>
    <radialGradient id="Unbenannter_Verlauf" data-name="Unbenannter Verlauf" cx="-142.3" cy="123.6" fx="-142.3" fy="123.6" r=".5" gradientTransform="translate(1703.2 1481.2) scale(11.9 -11.9)" gradientUnits="userSpaceOnUse">
      <stop offset="0" stop-color="#d4145a"/>
      <stop offset=".2" stop-color="#de3b78"/>
      <stop offset=".5" stop-color="#ec72a0"/>
      <stop offset=".7" stop-color="#f69abe"/>
      <stop offset=".9" stop-color="#fdb2d0"/>
      <stop offset="1" stop-color="#ffbbd7"/>
    </radialGradient>
    <clipPath id="clippath">
      <path class="st1" d="M27.9,18.7l-.5,7.6-4.7-10,5.1,2.4ZM23.9,26.9h-5.6l-.7,1.7,3.5,2,3.5-2-.7-1.7ZM19.3,24.7h3.7l-1.8-4.5-1.8,4.5ZM19.5,16.4c-1.9.9-5.1,2.4-5.1,2.4l.5,7.6,4.7-10Z"/>
    </clipPath>
    <clipPath id="clippath-1">
      <circle class="st1" cx="20.9" cy="23.3" r="8.5"/>
    </clipPath>
    <clipPath id="clippath-2">
      <rect class="st1" x="7.4" y="9.8" width="27" height="27"/>
    </clipPath>
  </defs>
  <path class="st4" d="M31.1,13.7c0-.2,0-.4,0-.6l-1.5-.3.4-.5.6-.7c0-.2-.2-.4-.3-.6-1.3-2-4-2.9-6.4-2.1-.5.2-1,.4-1.6.8-.7.5-1.5,1.1-2.1,1.8,0,0,0,0,0,0,.1-.2.2-.4.3-.6.6-1.3.9-2.7.9-3.8s-.5-2.7-1.3-3.8c-.7-.8-1.5-1.5-2.5-1.8,0,0,0,0-.1,0-.2,0-.4-.1-.6-.1l-.8,1.4-.2-.4-.5-1h0c-2.6.4-4.5,3-4.5,5.8s.2,2,.6,3c.2.5.4.9.6,1.4,0,0,0,0,0,0-.1-.2-.3-.3-.4-.5-1-1-2.2-1.8-3.3-2.1-1.1-.4-2.2-.4-3.2,0h0c-1.2.3-2.3,1-3,2.1,0,0,0,0-.1.1-.1.2-.2.4-.3.6l1,1.2-1.3.3h0s-.2,0-.2,0c0,0,0,0,0,.1,0,0,0,0,0,0,0,0,0,0,0,0,0,.2,0,.3,0,.5h0c0,2.5,1.6,4.8,3.9,5.6.6.2,1.3.3,2,.4.8,0,1.6,0,2.4-.1,0,0,0,0,.1,0-.8.4-1.5.9-2.1,1.4h0c-.5.5-1,1-1.4,1.5-.7.9-1,2.1-1.1,3.2h0c0,.4,0,.8,0,1.2,0,0,0,0,0,0,0,0,0,0,0,0,0,0,0,0,0,0,0,0,0,0,0,0,0,0,0,0,0,0,0,0,0,.1,0,.2,0,0,0,0,0,0,0,0,0,0,0,0,0,0,0,0,0,0,0,0,0,0,0,0,0,0,0,0,0,0,0,0,0,0,0,0,0,0,0,0,0,.1,0,0,0,0,0,0,0,0,0,0,0,0,0,0,0,0,0,0,0,0,0,0,0,0,0,0,0,0,0,0,0,0,0,0,0,0,0,0,0,0,0,0,.2.4.4.8.6,1.2.1.2.3.3.4.5l1.4-.6v.7c0,0-.2.9-.2.9.2,0,.3.2.5.2,2.2.9,5,0,6.4-2.1.5-.8,1-1.8,1.3-2.9.1-.4.2-.8.3-1.3,0,0,0-.1,0-.2.1.9.4,1.9.7,2.7,0,0,0,0,0,0,.2.6.5,1.2.8,1.6.4.6,1,1.1,1.6,1.5.8.5,1.7.8,2.6.9,0,0,0,0,.1,0,0,0,0,0,0,0,0,0,.1,0,.2,0,0,0,0,0,0,0h.1c.1,0,.2,0,.4,0h0s0,0,0,0c0,0,0,0,0,0,0,0,0,0,.1,0,.5,0,1.1-.2,1.6-.5l-.2-1.6.4.2,1,.5c.1-.1.2-.2.3-.3t0,0s0,0,0,0c1.5-1.9,1.6-5,0-7.1-.3-.4-.6-.8-1.1-1.2-.7-.6-1.5-1.2-2.4-1.7,0,0,0,0,0,0,.3,0,.5,0,.8.1h0c1.3.1,2.6,0,3.6-.3,1.9-.6,3.3-2.3,3.8-4.2,0,0,0,0,0,0,0-.4.1-.8.2-1.2,0,0,0-.1,0-.2Z"/>
  <path class="st5" d="M20.2,17.4c.9-.3,1.6-1.3,1.4-2.3h-.5c0-.1.4-.6.4-.6-.4-.9-1.5-1.3-2.5-1-.5.2-1,.5-1.4,1,.3-.5.4-1.2.4-1.6,0-1-.7-2-1.7-2.1l-.3.5-.3-.5c-1,.2-1.7,1.1-1.7,2.1s.2,1.1.4,1.6c-.4-.4-.9-.8-1.4-1-.9-.3-2,.1-2.5,1l.4.4h-.5c-.1,1.1.5,2.1,1.4,2.4.5.2,1.1.2,1.7,0-.5.3-1,.7-1.3,1.1-.6.8-.5,2,.2,2.7l.5-.2v.6c.8.5,1.9.1,2.5-.7.3-.4.5-1,.6-1.6,0,.6.3,1.2.6,1.6.6.8,1.7,1.2,2.6.7v-.6c0,0,.5.2.5.2.7-.7.7-1.9.2-2.7-.3-.4-.8-.8-1.3-1.1.6.1,1.2,0,1.6,0Z"/>
  <path class="st3" d="M14.7,22.5l1.4-5.6-.9,5.7h-.5Z"/>
  <path class="st3" d="M13.6,22.1l2.5-5.2-2,5.4-.5-.2Z"/>
  <path class="st3" d="M12.6,21.4l3.5-4.5-3.1,4.8-.4-.3Z"/>
  <path class="st3" d="M11.8,20.6l4.3-3.7-4,4.1-.3-.4Z"/>
  <path class="st3" d="M11.2,19.5l4.9-2.7-4.7,3.1-.3-.5Z"/>
  <path class="st3" d="M10.7,18.4l5.4-1.5-5.2,2-.2-.5Z"/>
  <path class="st3" d="M10.5,17.2l5.6-.3-5.5.9v-.5Z"/>
  <path class="st3" d="M10.6,16l5.5.9-5.6-.3v-.5Z"/>
  <path class="st3" d="M10.9,14.9l5.2,2-5.4-1.5.2-.5Z"/>
  <path class="st3" d="M11.4,13.8l4.7,3.1-4.9-2.7.3-.5Z"/>
  <path class="st3" d="M12.1,12.8l4,4.1-4.3-3.7.3-.4Z"/>
  <path class="st3" d="M13,12.1l3.1,4.8-3.5-4.5.4-.3Z"/>
  <path class="st3" d="M14.1,11.5l2,5.4-2.5-5.2.5-.2Z"/>
  <path class="st3" d="M15.2,11.2l.9,5.7-1.4-5.6h.5Z"/>
  <path class="st3" d="M16.4,11.1l-.3,5.8-.3-5.8h.5Z"/>
  <path class="st3" d="M17.5,11.3l-1.4,5.6.9-5.7h.5Z"/>
  <path class="st3" d="M18.6,11.7l-2.5,5.2,2-5.4.5.2Z"/>
  <path class="st3" d="M19.6,12.4l-3.5,4.5,3.1-4.8.4.3Z"/>
  <path class="st3" d="M20.4,13.2l-4.3,3.7,4-4.1.3.4Z"/>
  <path class="st3" d="M21,14.2l-4.9,2.7,4.7-3.1.3.5Z"/>
  <path class="st3" d="M21.5,15.4l-5.4,1.5,5.2-2,.2.5Z"/>
  <path class="st3" d="M21.7,16.6l-5.6.3,5.5-.9v.5Z"/>
  <path class="st3" d="M21.6,17.8l-5.5-.9,5.6.3v.5Z"/>
  <path class="st3" d="M21.3,18.9l-5.2-2,5.4,1.5-.2.5Z"/>
  <path class="st3" d="M20.8,20l-4.7-3.1,4.9,2.7-.3.5Z"/>
  <path class="st3" d="M20.1,20.9l-4-4.1,4.3,3.7-.3.4Z"/>
  <path class="st3" d="M19.2,21.7l-3.1-4.8,3.5,4.5-.4.3Z"/>
  <path class="st3" d="M18.1,22.3l-2-5.4,2.5,5.2-.5.2Z"/>
  <path class="st3" d="M17,22.6l-.9-5.7,1.4,5.6h-.5Z"/>
  <path class="st3" d="M15.8,22.7l.3-5.8.3,5.8h-.5Z"/>
  <g>
    <circle class="st0" cx="21.1" cy="23.2" r="8.5"/>
    <g class="st7">
      <g class="st2">
        <g class="st6">
          <image width="57" height="57" transform="translate(7 9.7) scale(.5)" xlink:href="sakura_favicon-1.png"/>
        </g>
      </g>
    </g>
  </g>
</svg>